<?xml version="1.0" standalone="no"?>
<!DOCTYPE svg PUBLIC "-//W3C//DTD SVG 20010904//EN"
 "http://www.w3.org/TR/2001/REC-SVG-20010904/DTD/svg10.dtd">
<svg version="1.0" xmlns="http://www.w3.org/2000/svg"
 width="563.000000pt" height="341.000000pt" viewBox="0 0 563.000000 341.000000"
 preserveAspectRatio="xMidYMid meet">
<metadata>
Created by potrace 1.16, written by Peter Selinger 2001-2019
</metadata>
<g transform="translate(0.000000,341.000000) scale(0.100000,-0.100000)"
fill="#000000" stroke="none">
<path d="M3046 2698 c-31 -30 -46 -54 -51 -81 -16 -83 -10 -91 351 -444 l335
-328 -1298 -5 -1298 -5 -3 -162 -2 -163 1302 0 1303 -1 -342 -337 c-366 -361
-362 -357 -348 -443 18 -107 152 -165 247 -106 40 24 924 883 975 947 42 53
50 98 28 155 -13 37 -99 125 -493 511 -262 257 -490 475 -507 485 -21 13 -49
19 -92 19 -60 0 -64 -2 -107 -42z"/>
</g>
</svg>
